<?xml version="1.0" encoding="UTF-8"?>
<svg class="w-full" id="Ebene_1" data-name="Ebene 1" xmlns="http://www.w3.org/2000/svg"
    viewBox="0 0 1000 1000">
    <defs>
        <style>
            .cls-1 {
            fill: currentColor;
            fill-rule: evenodd;
            stroke-width: 0px;
            }
        </style>
    </defs>
    <path class="cls-1"
        d="M635.57,405.68c-5.47,2.79-10.99,5.46-16.55,8.05l-.16.08c-.02.46-.04.92-.07,1.37-.02.5-.05,1.01-.09,1.52-.09,1.36-.19,2.72-.34,4.08-.32,2.96-.74,5.91-1.29,8.84-1.89,10-5.28,19.76-10.39,28.57-1.36,2.35-2.85,4.64-4.46,6.84-.81,1.12-1.68,2.21-2.55,3.29l-.11.13,9.21,9.2c.55-.46,1.08-.92,1.61-1.38,2.39-2.07,4.73-4.21,6.96-6.44,4.34-4.29,8.36-8.89,12-13.78,3.68-4.94,6.98-10.19,9.75-15.69,2.69-5.31,4.92-10.85,6.66-16.55,1.54-5.12,2.69-10.36,3.42-15.66.44-3.16.73-6.34.9-9.52l.02-.44.02-.29c-.18.1-.35.2-.53.3-4.62,2.58-9.29,5.07-14,7.47Z" />
    <path class="cls-1"
        d="M552.52,365.07l-.39.95c2.45,2.52,4.92,5.03,7.39,7.53,4.01,4.06,8.04,8.11,12.07,12.15,7.67,7.67,15.35,15.32,23.1,22.89l.19.18c7.49-3.11,14.91-6.37,22.25-9.84,5.56-2.63,11.08-5.38,16.54-8.25,4.51-2.38,8.99-4.85,13.42-7.42,3.24-1.88,6.44-3.8,9.63-5.78,20.71-12.92,40.12-28.2,56.44-46.42,2.64-2.96,5.22-6,7.7-9.11,3.33-4.19,6.5-8.52,9.49-12.98,4.53-6.79,8.66-13.87,12.27-21.19,5.54-11.19,9.91-22.93,13.15-34.98,2.94-10.89,4.92-22.03,6.11-33.24.74-7.07,1.15-14.18,1.29-21.29v-.54c-.18,0-.35,0-.53,0-6.92.14-13.83.53-20.71,1.23-11.4,1.17-22.75,3.18-33.83,6.16-12.04,3.24-23.79,7.62-34.98,13.16-7.31,3.62-14.41,7.73-21.19,12.28-4.6,3.08-9.08,6.37-13.4,9.83-3.1,2.49-6.14,5.07-9.1,7.73-18.36,16.52-33.69,36.16-46.67,57.13-1.97,3.19-3.89,6.41-5.75,9.66-2.34,4.07-4.6,8.18-6.79,12.34-2.87,5.45-5.62,10.96-8.25,16.53-3.32,7.02-6.45,14.13-9.44,21.3ZM665.66,261.17c.39-3.32,1.33-6.56,2.78-9.57,1.31-2.77,3.06-5.33,5.15-7.58,2.71-2.92,5.97-5.3,9.58-6.98,2.69-1.25,5.56-2.1,8.5-2.52,1.35-.19,2.69-.29,4.04-.31.37,0,.35,0,.73,0,1.35.02,2.69.12,4.02.31,2.94.42,5.82,1.27,8.52,2.52,3.61,1.67,6.87,4.06,9.58,6.98,2.18,2.34,3.97,5.02,5.31,7.91,1.42,3.03,2.3,6.28,2.67,9.6.35,3.29.16,6.63-.53,9.87-.64,2.92-1.72,5.74-3.17,8.35-1.7,3.04-3.91,5.79-6.53,8.09-2.66,2.35-5.74,4.23-9.05,5.52-3.56,1.39-7.36,2.1-11.19,2.1s-7.61-.71-11.17-2.1c-3.31-1.3-6.39-3.17-9.05-5.52-2.62-2.3-4.85-5.05-6.53-8.09-1.4-2.5-2.44-5.2-3.08-7.99-.8-3.46-.99-7.06-.57-10.59Z" />
    <path class="cls-1"
        d="M551.02,333.61c2.03-4.18,4.12-8.33,6.28-12.44,1.84-3.5,3.73-6.96,5.67-10.4l.28-.49c-.06,0-.13,0-.19,0-2.91.15-5.81.39-8.69.77-5.06.66-10.07,1.69-14.98,3.09-6.04,1.73-11.91,4.02-17.54,6.82-6.07,3.02-11.84,6.63-17.25,10.72-5.26,3.97-10.18,8.38-14.76,13.13-2.11,2.18-4.13,4.44-6.1,6.75l-.3.35-.19.23,9.2,9.2c.2-.16.4-.33.59-.49q.47-.38.93-.75c.93-.73,1.88-1.45,2.84-2.14,1.91-1.36,3.87-2.65,5.88-3.85,5.55-3.29,11.47-5.94,17.59-7.97,6.5-2.15,13.23-3.6,20.04-4.39,2.22-.25,4.44-.43,6.67-.55l.41-.02c.59-1.26,1.18-2.53,1.78-3.79.61-1.27,1.21-2.54,1.83-3.8Z" />
    <path class="cls-1"
        d="M682.2,273.73c1.03,1.59,2.32,3,3.81,4.15,1.27.99,2.71,1.8,4.23,2.37,1.86.7,3.84,1.06,5.82,1.06,2.12,0,4.25-.41,6.21-1.21,1.7-.69,3.29-1.67,4.66-2.89,1.47-1.29,2.71-2.83,3.63-4.54,1.01-1.87,1.65-3.94,1.88-6.06.32-2.9-.14-5.87-1.35-8.54-.73-1.62-1.72-3.12-2.94-4.43-1.45-1.57-3.2-2.86-5.15-3.76-1.43-.67-2.97-1.13-4.55-1.35-.73-.1-1.45-.16-2.18-.17q-.21,0-.41,0c-.73.01-1.45.07-2.18.17-1.58.23-3.12.69-4.57,1.35-1.93.9-3.68,2.19-5.15,3.76-1.38,1.5-2.5,3.26-3.24,5.17-1.29,3.34-1.47,7.08-.5,10.53.42,1.55,1.1,3.03,1.97,4.38Z" />
    <path class="cls-1"
        d="M500,45.46c-251.04,0-454.54,203.51-454.54,454.54s203.51,454.54,454.54,454.54,454.54-203.51,454.54-454.54S751.04,45.46,500,45.46ZM839.1,602.12c-5.29,17.6-11.99,34.78-19.95,51.33-9.14,18.93-19.95,37.04-32.29,54.06-12.48,17.21-26.5,33.3-41.85,48.01-15.86,15.22-33.14,28.96-51.54,41-18.23,11.93-37.57,22.17-57.7,30.54-22.13,9.21-45.21,16.15-68.78,20.67-22.06,4.23-44.53,6.34-66.99,6.34s-44.93-2.11-66.99-6.34c-23.56-4.52-46.64-11.46-68.79-20.67-20.12-8.37-39.46-18.62-57.69-30.54-18.4-12.03-35.67-25.78-51.54-41-15.34-14.72-29.36-30.8-41.84-48.01-12.34-17.01-23.16-35.13-32.29-54.06-7.98-16.55-14.67-33.73-19.96-51.33-5.18-17.21-9.04-34.82-11.54-52.63-2.3-16.39-3.44-32.94-3.44-49.49,0-22.1,2.04-44.19,6.13-65.91,3.04-16.13,7.22-32.05,12.48-47.6,4.41-13.03,9.59-25.8,15.5-38.22h0c1.35-2.83,2.73-5.65,4.15-8.44,9.2-18.08,19.96-35.37,32.11-51.61,12.09-16.17,25.57-31.31,40.22-45.2,14.67-13.9,30.52-26.56,47.33-37.77,16.33-10.89,33.56-20.42,51.46-28.46,14.16-6.35,28.73-11.77,43.6-16.2,14.39-4.29,29.07-7.65,43.89-10.06,12.16-1.98,24.42-3.32,36.71-4.02,4.15-.24,8.31-.4,12.47-.49,2.28-.05,4.57-.08,6.85-.09.76,0,1.53,0,2.29,0,2.28.01,4.57.04,6.85.09,4.16.09,8.32.26,12.47.49,12.3.7,24.56,2.04,36.71,4.02,14.82,2.41,29.5,5.77,43.89,10.06,14.87,4.43,29.44,9.84,43.6,16.2,7.72,3.47,15.33,7.21,22.78,11.22l-15.93,7.69c-3.86-1.93-7.77-3.79-11.7-5.57-13.56-6.14-27.53-11.38-41.78-15.67-13.47-4.05-27.17-7.26-41.04-9.6-12-2.03-24.11-3.41-36.26-4.14-6.18-.37-12.36-.57-18.55-.62-1.1,0-2.2,0-3.3,0-5.83.03-11.66.18-17.48.5-12.17.66-24.3,1.96-36.33,3.92-13.54,2.2-26.94,5.23-40.12,9.06-14.97,4.36-29.63,9.75-43.85,16.13-17.19,7.71-33.73,16.87-49.4,27.32-16.14,10.77-31.36,22.92-45.45,36.27-14.07,13.34-27.01,27.87-38.63,43.4-11.46,15.32-21.63,31.61-30.36,48.63-1.86,3.63-3.65,7.29-5.38,10.98,11.62,9.7,20.14,23,23.82,38.18,6.27-1.79,12.89-2.75,19.73-2.75,21.6,0,40.99,9.56,54.16,24.67,11.92-4.96,24.99-7.7,38.69-7.7,32.36,0,61.19,15.27,79.65,39,10.96-6.78,23.88-10.69,37.71-10.69,9.9,0,19.34,2.01,27.93,5.64l74.81-60.18-.57-.58c-2.32-2.35-4.63-4.71-6.93-7.09-.39-.4-.77-.79-1.15-1.19-.44-.45-1.22-1.22-1.64-1.79-1.09-1.46-1.57-3.33-1.33-5.13.1-.8.21-.99.46-1.75.36-.89.72-1.78,1.09-2.67.87-2.12,1.75-4.23,2.65-6.34-.43.05-.86.11-1.29.17-2.74.39-5.47.9-8.16,1.55-9.6,2.3-18.86,6.26-26.86,12.09-1.85,1.35-3.62,2.79-5.31,4.32-.74.67-1.46,1.36-2.17,2.07l-.64.56c-.62.43-.77.56-1.46.87-.78.35-1.62.55-2.47.6-1.14.07-2.29-.15-3.32-.62-.52-.23-1.01-.53-1.46-.88-.22-.18-.42-.38-.64-.57l-18.46-18.46c-.19-.21-.39-.41-.56-.64-.35-.45-.65-.93-.88-1.45-.59-1.3-.77-2.76-.52-4.16.15-.84.45-1.65.89-2.38.26-.43.49-.72.79-1.1.31-.4.63-.81.94-1.21,1.15-1.46,2.33-2.9,3.53-4.32,3.86-4.55,7.97-8.89,12.34-12.96,6.95-6.47,14.55-12.24,22.73-17.07,8.76-5.16,18.16-9.22,27.95-11.98,7.17-2.02,14.54-3.34,21.96-3.97,4.5-.38,9.02-.5,13.54-.4h.34c.32-.5.64-1.01.96-1.51.46-.72.92-1.44,1.38-2.15,1.61-2.48,3.24-4.95,4.9-7.39,3.04-4.45,6.21-8.82,9.49-13.1,9.08-11.86,19.1-23.03,30.13-33.11,6.53-5.98,13.44-11.58,20.66-16.71,6.55-4.65,13.35-8.91,20.39-12.76,7.42-4.05,15.1-7.62,22.96-10.7,8.04-3.15,16.27-5.77,24.64-7.9,11.91-3.02,24.08-5.02,36.33-6.12,7.33-.66,14.68-.98,22.04-1.04.89,0,1.77,0,2.66,0,.44,0,.89,0,1.33,0,.53,0,.99,0,1.5.06.28.04.57.09.83.16,1.38.35,2.64,1.11,3.58,2.17.57.63,1.01,1.37,1.31,2.16.19.53.34,1.08.41,1.64.04.28.04.56.05.84.02.89.02,1.78.02,2.66,0,7.38-.28,14.77-.89,22.13-.99,12.09-2.85,24.12-5.7,35.91-2.21,9.16-5.03,18.18-8.48,26.96-3.2,8.23-6.98,16.24-11.24,23.97-4.36,7.86-9.22,15.42-14.57,22.64-5.05,6.83-10.53,13.35-16.34,19.55-10.39,11.09-21.88,21.14-34.08,30.22-4.67,3.49-9.47,6.85-14.34,10.07-2.46,1.62-4.94,3.21-7.42,4.77.02.62.02,1.24.04,1.87.04,3.5-.05,7.01-.3,10.5-.42,6.14-1.31,12.26-2.67,18.26-1.93,8.49-4.83,16.75-8.6,24.58-3.66,7.56-8.13,14.73-13.24,21.38-4.96,6.46-10.52,12.45-16.54,17.95-3.22,2.95-6.57,5.76-10.02,8.45l-.41.31c-.62.42-.76.56-1.45.87-.78.35-1.63.55-2.48.6-1.13.07-2.28-.15-3.31-.62-.51-.24-1.01-.53-1.45-.88-.23-.18-.42-.38-.64-.56l-18.46-18.46c-.19-.21-.39-.41-.57-.64-.35-.45-.64-.94-.89-1.46-.34-.78-.55-1.62-.6-2.47-.07-1.14.12-2.29.6-3.33.23-.52.51-1.01.87-1.46.39-.49.83-.92,1.27-1.37.34-.36.34-.35.67-.71.78-.84,1.54-1.69,2.27-2.56,1.43-1.72,2.78-3.53,4.02-5.4,4.34-6.55,7.42-13.87,9.4-21.45,1.03-3.86,1.75-7.78,2.23-11.74l.07-.45.04-.42c-.96.41-1.93.81-2.89,1.21-1.33.55-2.67,1.1-4,1.65-.58.24-1.52.65-2.2.83-1.47.39-3.05.29-4.44-.28-.57-.23-1.1-.52-1.58-.88-.25-.18-.46-.39-.69-.59-.76-.73-1.52-1.47-2.28-2.21-3.03-2.94-6.04-5.89-9.03-8.85l-62.41,77.57c1.87,6.39,2.87,13.16,2.87,20.15,0,6.05-.75,11.92-2.16,17.53,38.33,7.69,67.23,41.57,67.23,82.15,0,9.35-1.54,18.34-4.36,26.74,30.18,8.5,52.35,36.26,52.35,69.16,0,3.13-.19,6.22-.58,9.25,28.45,13.14,49.75,39.14,56.44,70.53,1.47-.97,2.92-1.95,4.39-2.94,15.76-10.72,30.61-22.77,44.38-35.96,14.48-13.89,27.74-29.06,39.57-45.28,12.09-16.57,22.7-34.24,31.6-52.72,7.35-15.26,13.56-31.07,18.55-47.26,5.28-17.16,9.19-34.73,11.67-52.51,2.11-15.01,3.2-30.17,3.31-45.33.14-22.66-1.95-45.32-6.28-67.56-3.15-16.13-7.47-32.04-12.94-47.54-5.38-15.28-11.88-30.16-19.4-44.51-8.23-15.73-17.72-30.81-28.31-45.06,1.81-5.28,3.61-10.74,5.44-16.21,1.79,2.28,3.56,4.58,5.29,6.9,12.14,16.24,22.91,33.53,32.1,51.61,7.67,15.06,14.23,30.67,19.65,46.67,5.28,15.55,9.45,31.47,12.5,47.6,4.09,21.72,6.13,43.81,6.13,65.91,0,16.55-1.13,33.1-3.43,49.49-2.5,17.8-6.36,35.42-11.54,52.63Z" />
</svg>